<?xml version="1.0" encoding="UTF-8"?><svg id="Capa_2" xmlns="http://www.w3.org/2000/svg" viewBox="0 0 592.83 277.98"><g id="Capa_1-2"><path d="M311.69,129.68c-5.66-3-10.1-7.16-13.33-12.47-3.23-5.31-4.84-11.28-4.84-17.93s1.61-12.63,4.84-17.93c3.23-5.31,7.67-9.46,13.33-12.47,5.66-3,12.04-4.51,19.13-4.51s13.47,1.5,19.13,4.51c5.66,3.01,10.1,7.16,13.33,12.47,3.23,5.31,4.84,11.29,4.84,17.93s-1.62,12.63-4.84,17.93c-3.23,5.31-7.67,9.46-13.33,12.47-5.66,3.01-12.04,4.51-19.13,4.51s-13.47-1.5-19.13-4.51ZM340.03,116.06c2.75-1.6,4.92-3.85,6.52-6.76,1.6-2.91,2.4-6.25,2.4-10.02s-.8-7.11-2.4-10.02c-1.6-2.91-3.77-5.16-6.52-6.76-2.75-1.6-5.82-2.4-9.21-2.4s-6.46.8-9.21,2.4c-2.75,1.6-4.92,3.85-6.52,6.76-1.6,2.91-2.4,6.25-2.4,10.02s.8,7.11,2.4,10.02c1.6,2.91,3.77,5.16,6.52,6.76,2.75,1.6,5.82,2.4,9.21,2.4s6.46-.8,9.21-2.4Z" fill="#29235c"/><path d="M438.72,104.12c2.17,2.85,3.26,6.28,3.26,10.31,0,5.88-2.37,10.42-7.1,13.62-4.73,3.2-11.57,4.79-20.52,4.79h-36.25v-67.13h34.33c8.57,0,15.09,1.58,19.56,4.75,4.47,3.17,6.71,7.43,6.71,12.8,0,3.2-.78,6.06-2.35,8.58-1.57,2.53-3.79,4.52-6.67,5.99,3.84,1.34,6.84,3.44,9.02,6.28ZM396.9,79.42v12.95h13.04c6.39,0,9.59-2.17,9.59-6.52s-3.2-6.43-9.59-6.43h-13.04ZM422.79,112.32c0-4.54-3.33-6.81-9.97-6.81h-15.92v13.62h15.92c6.65,0,9.97-2.27,9.97-6.81Z" fill="#29235c"/><path d="M481.2,115h-10.36v17.84h-18.99v-67.13h30.69c6.07,0,11.35,1.01,15.82,3.02,4.47,2.01,7.93,4.89,10.36,8.63,2.43,3.74,3.64,8.14,3.64,13.19s-1.14,9.1-3.41,12.71c-2.27,3.61-5.51,6.44-9.73,8.49l14.48,21.1h-20.33l-12.18-17.84ZM490.22,83.26c-1.98-1.73-4.92-2.59-8.82-2.59h-10.55v19.66h10.55c3.9,0,6.84-.85,8.82-2.54,1.98-1.69,2.97-4.11,2.97-7.24s-.99-5.56-2.97-7.29Z" fill="#29235c"/><path d="M567.8,119.8h-28.39l-5.27,13.04h-19.37l29.63-67.13h18.7l29.73,67.13h-19.76l-5.27-13.04ZM562.24,105.8l-8.63-21.48-8.63,21.48h17.26Z" fill="#29235c"/><path d="M341.95,210.8h-28.39l-5.27,13.04h-19.37l29.63-67.13h18.7l29.73,67.13h-19.76l-5.27-13.04ZM336.38,196.8l-8.63-21.48-8.63,21.48h17.26Z" fill="#29235c"/><path d="M429.12,208.78v15.06h-60.13v-11.89l33.86-40.18h-32.99v-15.06h57.83v11.89l-33.85,40.18h35.29Z" fill="#29235c"/><path d="M445.19,217.03c-5.53-5.43-8.3-13.14-8.3-23.11v-37.21h18.99v36.64c0,10.74,4.25,16.11,12.76,16.11s12.66-5.37,12.66-16.11v-36.64h18.7v37.21c0,9.97-2.77,17.68-8.3,23.11-5.53,5.44-13.28,8.15-23.26,8.15s-17.73-2.72-23.26-8.15Z" fill="#29235c"/><path d="M512.85,156.71h18.99v52.08h32.03v15.06h-51.02v-67.13Z" fill="#29235c"/><path d="M46.63,213.22c-2.3-5.99-6.89-12.08-9.01-18.04-.52-1.47-1.47-2.64-.38-4.06,1.01-1.33,8.41-6.51,10.3-7.76,30.26-20,67.92-25.47,103.05-16.59,11.46,2.9,22.54,8.15,33.92,10.84,32.6,7.71,67.68,2.6,95.26-16.62,1.26,1.72-5.49,26.58-7.14,29.85s-7.19,5.83-10.47,7.56c-25.43,13.46-55.63,15.37-83.25,7.8-32.38-8.88-49.25-18.14-85.17-11.45-16.76,3.12-32.38,10.23-47.12,18.47Z" fill="#7fcbd8"/><path d="M266.09,205.14l-5.82,10.03c-7.23,10.1-15.63,21.57-25.59,29.12-7.88,5.98-34.09,4.46-43.96,2.96-15.23-2.32-28.11-9.14-42.74-12.59-20.57-4.85-42.48-4.76-62.95.51-2.8.72-14.28,4.95-15.7,4.81-2.67-.27-15.18-16.86-17.73-19.59,29.07-20.02,66.28-24.31,100.09-14.92,10.45,2.9,20.32,7.68,30.96,10.07,22.34,5.02,47.13,4.16,68.67-3.7,5.08-1.85,9.87-4.43,14.77-6.68Z" fill="#319eca"/><path d="M111.9,95.7h83.94v-19.59c0-19.06,22.21-36.66,40.18-38.16,5.65-.47,11.15.26,10.84,7.08-.3,6.7-6.34,4.78-10.84,5.35-12.57,1.59-28.37,13.3-28.37,26.97v95.44c-3.77-.05-8.54.22-11.81-1.55v-29.53h-83.94v13.06l-11.81.62v-78.65c0-11.69-13.98-23.48-24.74-25.62-4.89-.97-13.44.59-14.39-5.51-2.09-13.36,21.97-5.86,28.15-2.65,9.98,5.19,22.81,20.24,22.81,31.91v20.83ZM195.84,107.52h-83.94v22.38h83.94v-22.38Z" fill="#29235c"/><path d="M216.36,256.12c-1.8,2.39-5.53,3.77-8.28,5.08-43.22,20.55-89.91,15.48-128.45-12.28l-3.16-3.36c19.35-5.93,38.48-8.5,58.68-5.52,18.52,2.73,34.81,11.5,53.12,14.65,9.47,1.63,18.5,1.63,28.09,1.45Z" fill="#299cc8"/><path d="M302.58,47.47l-13.05,7.77-6.23,12.12c-.61.46-6.4-11.61-7.66-12.85-2.31-2.26-9.13-4.72-12.23-6.43-.55-.74,11.58-6.17,12.78-7.42,2.87-3,4.5-8.96,6.81-12.45,2.22,3.28,4.68,10.48,7.44,13.06,2.24,2.09,9.13,4.73,12.14,6.21Z" fill="#349dc8"/><path d="M37.29,98.2c.28.34.09.86-.38,1.28-2.54,2.25-9.02,3.84-11.77,6.76-1.84,1.94-4.86,11.23-6.8,11.23-2.04-3.4-3.84-8.65-6.51-11.54-3.23-3.51-8.45-4.15-11.83-7.43.02-.72,10.76-5.57,12.43-7.45s5.29-10.9,6.52-11.51c2.8,4.18,3.78,10.63,8.17,13.58,1.71,1.15,9.38,4.14,10.16,5.08Z" fill="#7fcbd8"/><path d="M277.68,13.66c-2.34,1.98-6.93,3.19-9.11,5.22-1.57,1.45-3.98,8.27-5.23,8.89-3.03-5.69-3.78-8.49-9.64-11.76-.73-.4-3.67-1.29-3.79-1.45-.9-1.21,6.2-4.09,6.98-4.62,3.43-2.35,4.24-6.89,6.91-9.94,1.75,2.58,2.96,7.31,5.21,9.35,1.91,1.73,6.26,3.13,8.67,4.31Z" fill="#7fcbd8"/><path d="M309.03,246.81c1.73,1.45,2.6,3.45,2.6,6.02s-.87,4.54-2.6,5.98-4.13,2.17-7.18,2.17h-6.94v7.94h-1.77v-24.28h8.71c3.05,0,5.45.72,7.18,2.17ZM307.78,257.69c1.36-1.13,2.05-2.75,2.05-4.86s-.68-3.73-2.05-4.87c-1.36-1.15-3.34-1.72-5.93-1.72h-6.94v13.15h6.94c2.59,0,4.57-.57,5.93-1.7Z" fill="#1d1d1b"/><path d="M321,244.64h1.77v24.28h-1.77v-24.28Z" fill="#1d1d1b"/><path d="M335.93,268.18c-1.61-.61-2.86-1.4-3.76-2.38l.8-1.32c.85.9,2.01,1.64,3.45,2.2s2.97.85,4.56.85c2.31,0,4.06-.44,5.24-1.32,1.18-.88,1.77-2.02,1.77-3.43,0-1.09-.31-1.95-.94-2.6s-1.4-1.14-2.32-1.49c-.92-.35-2.17-.71-3.75-1.08-1.78-.44-3.21-.87-4.28-1.28s-1.99-1.06-2.74-1.93c-.75-.87-1.13-2.03-1.13-3.48,0-1.18.31-2.26.94-3.24.62-.98,1.58-1.76,2.86-2.34s2.88-.87,4.8-.87c1.34,0,2.66.2,3.95.59s2.42.92,3.37,1.6l-.66,1.42c-.97-.67-2.04-1.18-3.21-1.53-1.17-.35-2.32-.52-3.45-.52-2.24,0-3.94.45-5.1,1.35-1.16.9-1.73,2.07-1.73,3.5,0,1.09.31,1.95.94,2.6.62.65,1.4,1.14,2.32,1.49.92.35,2.19.72,3.78,1.11,1.78.44,3.2.87,4.27,1.28,1.06.42,1.97,1.05,2.72,1.89.75.84,1.13,1.98,1.13,3.42,0,1.18-.32,2.25-.95,3.23-.64.97-1.61,1.75-2.93,2.32-1.32.58-2.94.87-4.86.87-1.78,0-3.47-.31-5.08-.92Z" fill="#1d1d1b"/><path d="M362.99,267.5c-1.91-1.06-3.41-2.53-4.51-4.41-1.1-1.87-1.65-3.98-1.65-6.31s.55-4.44,1.65-6.31c1.1-1.87,2.6-3.34,4.51-4.41,1.91-1.06,4.05-1.6,6.43-1.6,1.76,0,3.38.28,4.86.85,1.48.57,2.74,1.41,3.78,2.51l-1.11,1.14c-1.94-1.92-4.43-2.88-7.46-2.88-2.04,0-3.89.46-5.55,1.39s-2.97,2.2-3.92,3.83c-.95,1.63-1.42,3.45-1.42,5.46s.47,3.83,1.42,5.46c.95,1.63,2.25,2.91,3.92,3.83,1.67.93,3.52,1.39,5.55,1.39,3.01,0,5.49-.97,7.46-2.91l1.11,1.15c-1.04,1.11-2.31,1.95-3.8,2.53s-3.1.87-4.84.87c-2.38,0-4.53-.53-6.43-1.6Z" fill="#1d1d1b"/><path d="M387.39,244.64h1.77v24.28h-1.77v-24.28Z" fill="#1d1d1b"/><path d="M420.8,244.64v24.28h-1.46l-16.55-21.09v21.09h-1.77v-24.28h1.49l16.51,21.09v-21.09h1.77Z" fill="#1d1d1b"/><path d="M447.68,262.09h-14.08l-3.09,6.83h-1.91l11.17-24.28h1.77l11.17,24.28h-1.91l-3.12-6.83ZM447.02,260.6l-6.38-14.01-6.35,14.01h12.73Z" fill="#1d1d1b"/><path d="M461.82,268.18c-1.61-.61-2.86-1.4-3.76-2.38l.8-1.32c.85.9,2.01,1.64,3.45,2.2s2.97.85,4.56.85c2.31,0,4.06-.44,5.24-1.32,1.18-.88,1.77-2.02,1.77-3.43,0-1.09-.31-1.95-.94-2.6s-1.4-1.14-2.32-1.49c-.92-.35-2.17-.71-3.75-1.08-1.78-.44-3.21-.87-4.28-1.28s-1.99-1.06-2.74-1.93c-.75-.87-1.13-2.03-1.13-3.48,0-1.18.31-2.26.94-3.24.62-.98,1.58-1.76,2.86-2.34s2.88-.87,4.8-.87c1.34,0,2.66.2,3.95.59s2.42.92,3.37,1.6l-.66,1.42c-.97-.67-2.04-1.18-3.21-1.53-1.17-.35-2.32-.52-3.45-.52-2.24,0-3.94.45-5.1,1.35-1.16.9-1.73,2.07-1.73,3.5,0,1.09.31,1.95.94,2.6.62.65,1.4,1.14,2.32,1.49.92.35,2.19.72,3.78,1.11,1.78.44,3.2.87,4.27,1.28,1.06.42,1.97,1.05,2.72,1.89.75.84,1.13,1.98,1.13,3.42,0,1.18-.32,2.25-.95,3.23-.64.97-1.61,1.75-2.93,2.32-1.32.58-2.94.87-4.86.87-1.78,0-3.47-.31-5.08-.92Z" fill="#1d1d1b"/></g></svg>